<?xml version="1.0" encoding="utf-8"?>
<!-- Generator: Adobe Illustrator 21.0.2, SVG Export Plug-In . SVG Version: 6.00 Build 0)  -->
<svg version="1.1" id="Layer_1" xmlns="http://www.w3.org/2000/svg" xmlns:xlink="http://www.w3.org/1999/xlink" x="0px" y="0px"
	 viewBox="0 0 100 100" style="enable-background:new 0 0 100 100;" xml:space="preserve">
<style type="text/css">
	.st0{fill:#F99BAD;}
	.st1{fill:#EF0633;}
	.st2{fill:#B30526;}
</style>
<g>
	<path class="st0" d="M23.2,89.7L23.2,89.7c-5.9,0-10.6-4.8-10.6-10.6V20.9c0-5.9,4.8-10.6,10.6-10.6l0,0c5.9,0,10.6,4.8,10.6,10.6
		v58.2C33.8,85,29.1,89.7,23.2,89.7z"/>
	<path class="st1" d="M66.2,89.7L66.2,89.7c-5.9,0-10.6-4.8-10.6-10.6V20.9c0-5.9,4.8-10.6,10.6-10.6l0,0c5.9,0,10.6,4.8,10.6,10.6
		v58.2C76.8,85,72,89.7,66.2,89.7z"/>
	<g>
		<path class="st2" d="M44.4,38.6h32.4c5.8,0,10.6,4.7,10.6,10.6s-4.7,10.6-10.6,10.6H44.4c-5.9,0-10.6,4.8-10.6,10.7v8.8
			c0,5.8-4.8,10.6-10.7,10.6S12.6,85,12.6,79.1v-8.8C12.6,52.8,26.9,38.6,44.4,38.6z"/>
	</g>
</g>
</svg>
